<?xml version="1.0" encoding="utf-8"?>
<!-- Svg Vector Icons : http://www.onlinewebfonts.com/icon -->
<!DOCTYPE svg PUBLIC "-//W3C//DTD SVG 1.1//EN" "http://www.w3.org/Graphics/SVG/1.1/DTD/svg11.dtd">
<svg version="1.1" xmlns="http://www.w3.org/2000/svg" xmlns:xlink="http://www.w3.org/1999/xlink" x="0px" y="0px" viewBox="0 0 1000 1000" enable-background="new 0 0 1000 1000" xml:space="preserve">
<metadata> Svg Vector Icons : http://www.onlinewebfonts.com/icon </metadata>
<g><g><path d="M878.2,485c0,0-518.2,0-661,0l22-15.7c164.1-94.7,527.2-322.5,527.2-322.5c15-8.7,20.2-28.1,11.5-43.1l-31.6-77.8c-8.8-15.1-28.1-20.2-43.2-11.5L106,377.2c-15.1,8.8-20.2,28.1-11.6,43.2l57.2,62l0.5,476.1c0,17.5,14.1,31.5,31.6,31.5h694.5c17.4,0,31.6-14,31.6-31.5V516.5C909.8,499.1,895.6,485,878.2,485z M649.2,507.5l-97.5,94.7H425.4l94.8-94.7H649.2z M608.1,100.6l112.1-71.9l-16.4,105.5l-114.7,73.6L608.1,100.6z M408.3,223.5l114-71l-20.4,107l-113.9,71L408.3,223.5z M181.1,459.9l19.1-107.2l113.1-72.3l-19.2,107.1L181.1,459.9z M299.2,507.5h126.2l-94.7,94.7H204.5L299.2,507.5z M855.4,951.6H205.9V651.5h649.5V951.6z M774.8,602.2H646.4l94.8-94.7h125.3L774.8,602.2z"/><g></g><g></g><g></g><g></g><g></g><g></g><g></g><g></g><g></g><g></g><g></g><g></g><g></g><g></g><g></g></g><g></g><g></g><g></g><g></g><g></g><g></g><g></g><g></g><g></g><g></g><g></g><g></g><g></g><g></g><g></g></g>
</svg>